<svg width="28" height="28" viewBox="0 0 28 28" fill="none" xmlns="http://www.w3.org/2000/svg">
<path d="M14 26.4422C13.6014 26.4422 13.217 26.2978 12.9175 26.0355C11.7864 25.0464 10.6959 24.1169 9.73372 23.297L9.7288 23.2928C6.90792 20.8889 4.47198 18.8129 2.77709 16.7679C0.882475 14.4817 0 12.3141 0 9.94606C0 7.64534 0.788908 5.52279 2.22125 3.96911C3.67068 2.39706 5.6595 1.53125 7.82201 1.53125C9.43828 1.53125 10.9185 2.04224 12.2214 3.04989C12.8789 3.55853 13.4749 4.18103 14 4.90713C14.5253 4.18103 15.1211 3.55853 15.7788 3.04989C17.0817 2.04224 18.5619 1.53125 20.1782 1.53125C22.3404 1.53125 24.3295 2.39706 25.7789 3.96911C27.2113 5.52279 27.9999 7.64534 27.9999 9.94606C27.9999 12.3141 27.1177 14.4817 25.2231 16.7677C23.5282 18.8129 21.0925 20.8887 18.272 23.2923C17.3081 24.1135 16.2159 25.0445 15.0822 26.0359C14.7829 26.2978 14.3984 26.4422 14 26.4422ZM7.82201 3.17144C6.12307 3.17144 4.56234 3.84948 3.42693 5.0808C2.27465 6.33071 1.63998 8.05849 1.63998 9.94606C1.63998 11.9377 2.38018 13.7188 4.03982 15.7213C5.64391 17.657 8.02986 19.6902 10.7924 22.0446L10.7976 22.0488C11.7633 22.8719 12.8582 23.805 13.9976 24.8014C15.1439 23.8031 16.2404 22.8685 17.2082 22.0441C19.9705 19.6898 22.3563 17.657 23.9603 15.7213C25.6198 13.7188 26.36 11.9377 26.36 9.94606C26.36 8.05849 25.7253 6.33071 24.573 5.0808C23.4378 3.84948 21.8769 3.17144 20.1782 3.17144C18.9336 3.17144 17.7909 3.56707 16.782 4.34722C15.8828 5.04278 15.2565 5.92205 14.8893 6.53728C14.7004 6.85366 14.368 7.0425 14 7.0425C13.6319 7.0425 13.2995 6.85366 13.1107 6.53728C12.7437 5.92205 12.1173 5.04278 11.218 4.34722C10.209 3.56707 9.06636 3.17144 7.82201 3.17144Z" fill="#0F2438"/>
</svg>
